<svg id="Layer_1" data-name="Layer 1" xmlns="http://www.w3.org/2000/svg" viewBox="0 0 248 291"><defs><style>.cls-1,.cls-3,.cls-6{fill-rule:evenodd;}.cls-2,.cls-4,.cls-7{fill:none;stroke-linecap:round;stroke-width:0.57px;}.cls-2,.cls-4{stroke:#000;}.cls-2,.cls-7{stroke-miterlimit:22.93;}.cls-3,.cls-5{fill:#ffbffb;}.cls-4{stroke-linejoin:round;}.cls-6{fill:#fefefe;}.cls-7{stroke:#373435;}</style></defs><title>Chubbs_8 by growwwkit</title><path class="cls-1" d="M141.31,75.91h-30.2c-6-7.91.82-13.86,1.58-20.3.19-1.59,1.12,5.2,1.33,6,.38,1.51,1.67,1.45,2.52.72,1.93-1.69,1.17-6.92.35-9-1.68-4.36,2.06-9,2.08-7.69,0,1.57-.57,3.46,1.07,5.87a13.26,13.26,0,0,1,2,4.19c.39,1.53.48,2.21,1,2.53,2,1.27,3.26-1.67,3.06-3.59-.07-.71-.32-3,.15-3.35.52-.14,1,3.08,2.36,4.64,2.27,2.55,3.87-.47,4.1-2.1.45-3-1.38-6.68.56-10.69.6-1.25.17.28,1.17,2.13,2.81,5.2,4.67,6.23,2.54,15.09-.34,1.4-.26,2.49.44,3.15.95.9,2.69.75,2.79-2.81a6.23,6.23,0,0,1,.59-1.86c.61-1,1.53-1.71,1.43-1.07-.39,2.24,5.3,7.48,2,14.87C143.11,75.16,141.49,74.56,141.31,75.91Z"/><path class="cls-2" d="M141.31,75.91h-30.2c-6-7.91.82-13.86,1.58-20.3.19-1.59,1.12,5.2,1.33,6,.38,1.51,1.67,1.45,2.52.72,1.93-1.69,1.17-6.92.35-9-1.68-4.36,2.06-9,2.08-7.69,0,1.57-.57,3.46,1.07,5.87a13.26,13.26,0,0,1,2,4.19c.39,1.53.48,2.21,1,2.53,2,1.27,3.26-1.67,3.06-3.59-.07-.71-.32-3,.15-3.35.52-.14,1,3.08,2.36,4.64,2.27,2.55,3.87-.47,4.1-2.1.45-3-1.38-6.68.56-10.69.6-1.25.17.28,1.17,2.13,2.81,5.2,4.67,6.23,2.54,15.09-.34,1.4-.26,2.49.44,3.15.95.9,2.69.75,2.79-2.81a6.23,6.23,0,0,1,.59-1.86c.61-1,1.53-1.71,1.43-1.07-.39,2.24,5.3,7.48,2,14.87C143.11,75.16,141.49,74.56,141.31,75.91Z"/><path class="cls-3" d="M142.29,103.92c1.93,3.44,8.73,23.19,8.67,23.13a57.41,57.41,0,0,1,1.82,17.76H101.6c.74-23,10.92-27.77,10.92-50.27,0-8.55,0-8.41,0-17,0-18.3,28.79-18.95,28.77,0l0,18.46A31.29,31.29,0,0,0,142.29,103.92Z"/><path class="cls-2" d="M142.29,103.92c1.93,3.44,8.73,23.19,8.67,23.13a57.41,57.41,0,0,1,1.82,17.76H101.6c.74-23,10.92-27.77,10.92-50.27,0-8.55,0-8.41,0-17,0-18.3,28.79-18.95,28.77,0l0,18.46A31.29,31.29,0,0,0,142.29,103.92Z"/><path class="cls-3" d="M106.78,238.2h21a.66.66,0,0,1,.64.64l1,14.15H95.79c-.63-5.92,3.71-7.72,8.83-10.26C106.62,241.25,106.78,238.2,106.78,238.2Z"/><path class="cls-4" d="M106.78,238.2h21a.66.66,0,0,1,.64.64l1,14.15H95.79c-.63-5.92,3.71-7.72,8.83-10.26C106.62,241.25,106.78,238.2,106.78,238.2Z"/><rect class="cls-5" x="95.15" y="250.73" width="35.27" height="4.31" rx="0.64" ry="0.64"/><rect class="cls-4" x="95.15" y="250.73" width="35.27" height="4.31" rx="0.64" ry="0.64"/><path class="cls-3" d="M127.45,238.2h21a.66.66,0,0,1,.64.64L150,253H116.47c-.63-5.92,3.71-7.72,8.83-10.26C127.3,241.25,127.45,238.2,127.45,238.2Z"/><path class="cls-4" d="M127.45,238.2h21a.66.66,0,0,1,.64.64L150,253H116.47c-.63-5.92,3.71-7.72,8.83-10.26C127.3,241.25,127.45,238.2,127.45,238.2Z"/><rect class="cls-5" x="115.83" y="250.73" width="35.27" height="4.31" rx="0.64" ry="0.64"/><rect class="cls-4" x="115.83" y="250.73" width="35.27" height="4.31" rx="0.64" ry="0.64"/><path class="cls-3" d="M112.54,77.58c0,8.55,0,8.41,0,17a64,64,0,0,1-.42,7.52h29.77a30.35,30.35,0,0,1-.59-6l0-18.46C141.33,58.63,112.57,59.28,112.54,77.58Z"/><path class="cls-4" d="M112.54,77.58c0,8.55,0,8.41,0,17a64,64,0,0,1-.42,7.52h29.77a30.35,30.35,0,0,1-.59-6l0-18.46C141.33,58.63,112.57,59.28,112.54,77.58Z"/><path class="cls-3" d="M141.24,76.06c-1.43-16.87-27.1-16.32-28.62,0Z"/><path class="cls-4" d="M141.24,76.06c-1.43-16.87-27.1-16.32-28.62,0Z"/><path class="cls-3" d="M152.7,144.55c0,.2,0,.41,0,.62.19,9.67-2.93,15-2.91,23.82.06,19.16.58,68.39.52,69.39H105.6s-.39-50.11-.12-68.89c.15-10-2.75-12.86-3.83-24.22a5.72,5.72,0,0,1,0-.72Z"/><path class="cls-4" d="M152.7,144.55c0,.2,0,.41,0,.62.19,9.67-2.93,15-2.91,23.82.06,19.16.58,68.39.52,69.39H105.6s-.39-50.11-.12-68.89c.15-10-2.75-12.86-3.83-24.22a5.72,5.72,0,0,1,0-.72Z"/><path class="cls-6" d="M113.82,87.54a1.67,1.67,0,1,0-1.67-1.67A1.67,1.67,0,0,0,113.82,87.54Z"/><path class="cls-4" d="M113.82,87.54a1.67,1.67,0,1,0-1.67-1.67A1.67,1.67,0,0,0,113.82,87.54Z"/><path class="cls-6" d="M127.85,84.2a1.67,1.67,0,1,0,1.67,1.67A1.68,1.68,0,0,0,127.85,84.2Z"/><path class="cls-4" d="M127.85,84.2a1.67,1.67,0,1,0,1.67,1.67A1.68,1.68,0,0,0,127.85,84.2Z"/><path class="cls-4" d="M127.26,169.69c0-4.08-6.71-3.7-9.17-9.51"/><path class="cls-3" d="M141,99.46h-28.5a2,2,0,1,0,0,4.05H141a2,2,0,0,0,0-4.05Z"/><path class="cls-2" d="M141,99.46h-28.5a2,2,0,1,0,0,4.05H141a2,2,0,0,0,0-4.05Z"/><line class="cls-2" x1="141.31" y1="75.91" x2="97.46" y2="75.91"/><path class="cls-1" d="M112.14,103.42l-.44,1.76a148.24,148.24,0,0,1,16.79-1.7Z"/><path class="cls-2" d="M112.14,103.42l-.44,1.76a148.24,148.24,0,0,1,16.79-1.7Z"/><path class="cls-1" d="M106.6,238.34l-.44,1.77A143.71,143.71,0,0,1,123,238.4Z"/><path class="cls-2" d="M106.6,238.34l-.44,1.77A143.71,143.71,0,0,1,123,238.4Z"/><path class="cls-1" d="M127.56,238.34l-.44,1.77a143.36,143.36,0,0,1,16.79-1.71Z"/><path class="cls-2" d="M127.56,238.34l-.44,1.77a143.36,143.36,0,0,1,16.79-1.71Z"/><path class="cls-1" d="M113,75.85l-.43,1.76a147.83,147.83,0,0,1,16.78-1.7Z"/><path class="cls-2" d="M113,75.85l-.43,1.76a147.83,147.83,0,0,1,16.78-1.7Z"/><path class="cls-1" d="M113.45,86.06a.19.19,0,0,0-.19.19.2.2,0,0,0,.19.19.19.19,0,0,0,.19-.19A.18.18,0,0,0,113.45,86.06Z"/><path class="cls-4" d="M113.45,86.06a.19.19,0,0,0-.19.19.2.2,0,0,0,.19.19.19.19,0,0,0,.19-.19A.18.18,0,0,0,113.45,86.06Z"/><path class="cls-1" d="M127.29,86.46a.2.2,0,0,0,.19-.19.19.19,0,0,0-.19-.19.18.18,0,0,0-.19.19A.19.19,0,0,0,127.29,86.46Z"/><path class="cls-4" d="M127.29,86.46a.2.2,0,0,0,.19-.19.19.19,0,0,0-.19-.19.18.18,0,0,0-.19.19A.19.19,0,0,0,127.29,86.46Z"/><line class="cls-2" x1="127.23" y1="238.38" x2="127.23" y2="169.57"/><path class="cls-7" d="M122.14,91.61a4.39,4.39,0,0,0-4.25,0"/><line class="cls-2" x1="112.29" y1="83.07" x2="115.73" y2="84.51"/><line class="cls-2" x1="129.21" y1="83.07" x2="125.77" y2="84.51"/><path class="cls-1" d="M124.84,45.82c-1.54-4.17,2-8.34,2-10.15,0,2.57,2.85,4.28-.32,9a6.65,6.65,0,0,0-1,3C125.12,47.7,124.89,46,124.84,45.82Z"/><path class="cls-2" d="M124.84,45.82c-1.54-4.17,2-8.34,2-10.15,0,2.57,2.85,4.28-.32,9a6.65,6.65,0,0,0-1,3C125.12,47.7,124.89,46,124.84,45.82Z"/><path class="cls-3" d="M110.31,110.5c-3.86-.37-10.94,7.76-12.26,13.44-1.88,8.07,7.77,9.36,12.88,10,1.11.14,12.63.61,13,.32,3.51-2.61,5.35-3.68,6.85-7.8.88-2.42-20.36-6.3-22.13-6.62-1.27-.24-1.67.52,0-4A41.79,41.79,0,0,0,110.31,110.5Z"/><path class="cls-2" d="M110.31,110.5c-3.86-.37-10.94,7.76-12.26,13.44-1.88,8.07,7.77,9.36,12.88,10,1.11.14,12.63.61,13,.32,3.51-2.61,5.35-3.68,6.85-7.8.88-2.42-20.36-6.3-22.13-6.62-1.27-.24-1.67.52,0-4A41.79,41.79,0,0,0,110.31,110.5Z"/><path class="cls-3" d="M133.59,111.64c-.55.8-8,10.55-10.15,10.86-1.58.24-13,2.06-20,3.47-1.13.22-2.79-2-5.18-1-1.54.6-.77,2.36-.92,2.44a2.28,2.28,0,0,0-.48,3.86c.26.2-1.22,2.25.86,3.48.2.12-1.46,3.91,6,3.5,4.84-.27,12.85-2.4,20.63-3.84,6.41-1.19,8.23-1.07,12.22-5.54a54.69,54.69,0,0,0,5.9-7.43c3.23-5.35-1.6-11.78-7.64-11.06-.28,0-1.13,1.07-1.27,1.27"/><path class="cls-2" d="M133.59,111.64c-.55.8-8,10.55-10.15,10.86-1.58.24-13,2.06-20,3.47-1.13.22-2.79-2-5.18-1-1.54.6-.77,2.36-.92,2.44a2.28,2.28,0,0,0-.48,3.86c.26.2-1.22,2.25.86,3.48.2.12-1.46,3.91,6,3.5,4.84-.27,12.85-2.4,20.63-3.84,6.41-1.19,8.23-1.07,12.22-5.54a57.62,57.62,0,0,0,5.9-7.43"/><path class="cls-2" d="M108,119.76a25.58,25.58,0,0,0-3.16-.62"/><path class="cls-1" d="M106.07,119.34c0-.06,4.18-8.63,4.13-8.42-.32,1.46-2.13,5.91-2.76,8.44C107.39,119.57,106.09,119.38,106.07,119.34Z"/><path class="cls-2" d="M106.07,119.34c0-.06,4.18-8.63,4.13-8.42-.32,1.46-2.13,5.91-2.76,8.44C107.39,119.57,106.09,119.38,106.07,119.34Z"/><path class="cls-7" d="M97.36,127.4c.62-.06,1.8,0,2.48,0"/><path class="cls-1" d="M102,139.68c0-.08.16-1.42.54-1.42a119,119,0,0,0,15.89-2.65c10.9-2.42,14.86-3.09,16.93-5.17.48-.48,2-2.4,2-2.4a17.65,17.65,0,0,1-3.15,4.11c-2,1.84-15.34,4.42-18.74,5.34C112.27,138.34,105.63,139.85,102,139.68Z"/><path class="cls-2" d="M102,139.68c0-.08.16-1.42.54-1.42a119,119,0,0,0,15.89-2.65c10.9-2.42,14.86-3.09,16.93-5.17.48-.48,2-2.4,2-2.4a17.65,17.65,0,0,1-3.15,4.11c-2,1.84-15.34,4.42-18.74,5.34C112.27,138.34,105.63,139.85,102,139.68Z"/></svg>