<svg id="Layer_1" data-name="Layer 1" xmlns="http://www.w3.org/2000/svg" viewBox="0 0 248 291"><defs><style>.cls-1,.cls-3{fill:#ffbffb;}.cls-1,.cls-4,.cls-6{fill-rule:evenodd;}.cls-2,.cls-5,.cls-7{fill:none;stroke-linecap:round;stroke-width:0.57px;}.cls-2,.cls-5{stroke:#000;}.cls-2{stroke-linejoin:round;}.cls-5,.cls-7{stroke-miterlimit:22.93;}.cls-6{fill:#fefefe;}.cls-7{stroke:#373435;}</style></defs><title>Chubbs_6 by growwwkit</title><path class="cls-1" d="M171.11,212.42l-17.64,11.37a.67.67,0,0,0-.19.89l6.86,12.42,28.22-18.19c-2.68-5.32-7.3-4.48-13-3.85C172.9,214.91,171.11,212.42,171.11,212.42Z"/><path class="cls-2" d="M171.11,212.42l-17.64,11.37a.67.67,0,0,0-.19.89l6.86,12.42,28.22-18.19c-2.68-5.32-7.3-4.48-13-3.85C172.9,214.91,171.11,212.42,171.11,212.42Z"/><rect class="cls-3" x="156.39" y="225.87" width="35.27" height="4.31" rx="0.64" ry="0.64" transform="translate(-95.77 130.59) rotate(-32.79)"/><rect class="cls-2" x="156.39" y="225.87" width="35.27" height="4.31" rx="0.64" ry="0.64" transform="translate(-95.77 130.59) rotate(-32.79)"/><path class="cls-4" d="M171.34,212.45l1.32,1.25a141.6,141.6,0,0,0-15,7.66Z"/><path class="cls-5" d="M171.34,212.45l1.32,1.25a141.6,141.6,0,0,0-15,7.66Z"/><path class="cls-1" d="M94.61,220.27,74,216.21a.66.66,0,0,0-.75.51l-3.68,13.7,32.94,6.5c1.76-5.69-2.21-6.73-6.74-10.22C94.11,224.87,94.61,220.27,94.61,220.27Z"/><path class="cls-2" d="M94.61,220.27,74,216.21a.66.66,0,0,0-.75.51l-3.68,13.7,32.94,6.5c1.76-5.69-2.21-6.73-6.74-10.22C94.11,224.87,94.61,220.27,94.61,220.27Z"/><path class="cls-1" d="M102.68,234.7l-10.57-.12-22.49-6.46a.63.63,0,0,0-.75.5l-.59,3a.67.67,0,0,0,.51.75l22.86,6.53,10.48.05c.35,0,.72-.15.75-.5l.31-3C103.22,235.1,103,234.7,102.68,234.7Z"/><path class="cls-2" d="M102.68,234.7l-10.57-.12-22.49-6.46a.63.63,0,0,0-.75.5l-.59,3a.67.67,0,0,0,.51.75l22.86,6.53,10.48.05c.35,0,.72-.15.75-.5l.31-3C103.22,235.1,103,234.7,102.68,234.7Z"/><path class="cls-4" d="M94.49,220.4l.08,1.81a146.73,146.73,0,0,0-16.14-4.92Z"/><path class="cls-5" d="M94.49,220.4l.08,1.81a146.73,146.73,0,0,0-16.14-4.92Z"/><path class="cls-1" d="M128.54,95.35c5.43,5.52,9.43,11.89,19,18.51,3.08,2.13,5.09,3.8,5.73,4.08,0,0-.09-13.34-.09-13.78,0-1.62-5.28-3.06-2.58-16A31.51,31.51,0,0,0,151,84c.26-3.53,3.11-4.12,4.42-1.6.63,1.2.62,3.7.49,5.12-.12,1.23,1.08.41,5.57.61a2.45,2.45,0,0,1,2,4c-.11.15,3,1.16,1,4.28,2.52,2.8-.78,4.21-.86,4.7-.61,3.79,2.06,22.84.55,26.73-3.53,9.08-14.52,3.48-29.23-7.65-5.11-3.86-8-15.51-6.52-21.75C128.5,98.24,128.54,95.34,128.54,95.35Z"/><path class="cls-5" d="M128.54,95.35c5.43,5.52,9.43,11.89,19,18.51,3.08,2.13,5.09,3.8,5.73,4.08,0,0-.09-13.34-.09-13.78,0-1.62-5.28-3.06-2.58-16A31.51,31.51,0,0,0,151,84c.26-3.53,3.11-4.12,4.42-1.6.63,1.2.62,3.7.49,5.12-.12,1.23,1.08.41,5.57.61a2.45,2.45,0,0,1,2,4c-.11.15,3,1.16,1,4.28,2.52,2.8-.78,4.21-.86,4.7-.61,3.79,2.06,22.84.55,26.73-3.53,9.08-14.52,3.48-29.23-7.65-5.11-3.86-8-15.51-6.52-21.75C128.5,98.24,128.54,95.34,128.54,95.35Z"/><path class="cls-4" d="M153.28,117.23c0,.45,0,4.18,0,5.29a11.52,11.52,0,0,0-1.18-4.68s-.7-1.24-.54-1.1a8.81,8.81,0,0,0,1.56.85C153.14,117.53,153.24,117.24,153.28,117.23Z"/><path class="cls-2" d="M153.28,117.23c0,.45,0,4.18,0,5.29a11.52,11.52,0,0,0-1.18-4.68s-.7-1.24-.54-1.1a8.81,8.81,0,0,0,1.56.85C153.14,117.53,153.24,117.24,153.28,117.23Z"/><path class="cls-4" d="M128.53,96l3.37,3.15c2,9.28,5,14.72,6.56,23.81-2-1.66-3.45-3-5.45-4.7Z"/><path class="cls-5" d="M128.53,96l3.37,3.15c2,9.28,5,14.72,6.56,23.81-2-1.66-3.45-3-5.45-4.7Z"/><path class="cls-1" d="M128.18,65.82c0,8.55,0,8.41,0,17,0,22.61,10.28,27.38,10.92,50.63.12,4.25-3.68,3.72-4.33,9.43-4.8,1.17-17.65-3.52-22.45-2.36-4.78-1.16-17.42,8.33-22.21,7.17-8.41-36.94,9.34-44.13,9.31-63.37l0-18.46C99.39,46.87,128.16,47.53,128.18,65.82Z"/><path class="cls-2" d="M128.18,65.82c0,8.55,0,8.41,0,17,0,22.61,10.28,27.38,10.92,50.63.12,4.25-3.68,3.72-4.33,9.43-4.8,1.17-17.65-3.52-22.45-2.36-4.78-1.16-17.42,8.33-22.21,7.17-8.41-36.94,9.34-44.13,9.31-63.37l0-18.46C99.39,46.87,128.16,47.53,128.18,65.82Z"/><path class="cls-1" d="M128.18,65.82c0,8.55,0,8.41,0,17a64.16,64.16,0,0,0,.42,7.53H98.86a31.3,31.3,0,0,0,.59-6l0-18.46C99.39,46.87,128.16,47.53,128.18,65.82Z"/><path class="cls-2" d="M128.18,65.82c0,8.55,0,8.41,0,17a64.16,64.16,0,0,0,.42,7.53H98.86a31.3,31.3,0,0,0,.59-6l0-18.46C99.39,46.87,128.16,47.53,128.18,65.82Z"/><path class="cls-1" d="M99.49,64.31c1.42-16.88,27.1-16.33,28.62,0Z"/><path class="cls-2" d="M99.49,64.31c1.42-16.88,27.1-16.33,28.62,0Z"/><path class="cls-1" d="M88.17,132.79c0,.21,0,.41,0,.62-.18,9.67,2.13,6.85,2.1,15.7-.25,4-18.79,66.26-18.73,67.25,3,0,24.77,4.13,24.77,4.13.8-5.84,17-57.06,17.38-57.71l39.24,61c3-.57,17.82-11.11,18.46-11.35,0,0-32.6-56-33.35-58-.1-6.77,1.56-15.36,1.25-21.7Z"/><path class="cls-2" d="M88.17,132.79c0,.21,0,.41,0,.62-.18,9.67,2.13,6.85,2.1,15.7-.25,4-18.79,66.26-18.73,67.25,3,0,24.77,4.13,24.77,4.13.8-5.84,17-57.06,17.38-57.71l39.24,61c3-.57,17.82-11.11,18.46-11.35,0,0-32.6-56-33.35-58-.1-6.77,1.56-15.36,1.25-21.7Z"/><path class="cls-6" d="M126.91,75.78a1.67,1.67,0,1,1,1.67-1.67A1.67,1.67,0,0,1,126.91,75.78Z"/><path class="cls-2" d="M126.91,75.78a1.67,1.67,0,1,1,1.67-1.67A1.67,1.67,0,0,1,126.91,75.78Z"/><path class="cls-6" d="M112.88,72.44a1.67,1.67,0,1,1-1.67,1.67A1.67,1.67,0,0,1,112.88,72.44Z"/><path class="cls-2" d="M112.88,72.44a1.67,1.67,0,1,1-1.67,1.67A1.67,1.67,0,0,1,112.88,72.44Z"/><path class="cls-2" d="M115,158.25c0-4.09,6.72-3.7,9.17-9.52"/><path class="cls-5" d="M126.28,67.63a3.39,3.39,0,0,1,1.93.3"/><path class="cls-5" d="M113.59,67.63a3.36,3.36,0,0,0-1.93.3"/><path class="cls-1" d="M99.69,87.71h28.5a2,2,0,1,1,0,4.05H99.69a2,2,0,0,1,0-4.05Z"/><path class="cls-5" d="M99.69,87.71h28.5a2,2,0,1,1,0,4.05H99.69a2,2,0,0,1,0-4.05Z"/><line class="cls-5" x1="99.42" y1="64.16" x2="143.27" y2="64.16"/><path class="cls-4" d="M128.59,91.66l.43,1.77a142.27,142.27,0,0,0-16.78-1.7Z"/><path class="cls-5" d="M128.59,91.66l.43,1.77a142.27,142.27,0,0,0-16.78-1.7Z"/><path class="cls-4" d="M127.74,64.09l.43,1.77a142.27,142.27,0,0,0-16.78-1.7Z"/><path class="cls-5" d="M127.74,64.09l.43,1.77a142.27,142.27,0,0,0-16.78-1.7Z"/><path class="cls-4" d="M126.74,73.82a.2.2,0,0,1,.2.19.19.19,0,0,1-.2.19.19.19,0,0,1-.19-.19A.2.2,0,0,1,126.74,73.82Z"/><path class="cls-2" d="M126.74,73.82a.2.2,0,0,1,.2.19.19.19,0,0,1-.2.19.19.19,0,0,1-.19-.19A.2.2,0,0,1,126.74,73.82Z"/><path class="cls-4" d="M112.91,74.22a.19.19,0,0,1,0-.38.19.19,0,0,1,0,.38Z"/><path class="cls-2" d="M112.91,74.22a.19.19,0,0,1,0-.38.19.19,0,0,1,0,.38Z"/><line class="cls-5" x1="113.2" y1="163.69" x2="115" y2="157.91"/><path class="cls-4" d="M88.07,126.4l14.29-14.77c-.27.7-4.34,5.09-8.54,10.78-.16.21-6.2,10.33-5.93,10.38S88.07,126.4,88.07,126.4Z"/><path class="cls-5" d="M88.07,126.4l14.29-14.77c-.27.7-4.34,5.09-8.54,10.78-.16.21-6.2,10.33-5.93,10.38S88.07,126.4,88.07,126.4Z"/><path class="cls-1" d="M65.86,150.12c-.51-.49-1.29,5.51-2.11,6.25-1.58,1.4-3.28-1.69-3.34-2.76,0-.53-4.73.35-1.06-6.88,1.17-2.29,7.35-9.82,9.2-12.77C77,120.4,89.32,103.56,98.91,97.35c1.34-.86,4.31,1.25,4.94,1.81,1,.9,1.65,2.18.58,6.77-1.12,4.84,3.12,3.57-1.76,3.9C93,121,88.16,126.37,80.41,139.07c-1.66,2.72-3.06,4.49-3.5,6.35-.38,1.57.17,3.12-.54,6-.47,2-5.27,4.81-6.26,3.5-.64-.86-.5-1.6.19-5.05.17-.86.64-4.35.26-4.87-.82-1.3-3.94,3.22-4.7,5.08"/><path class="cls-2" d="M66.38,149.1a14.84,14.84,0,0,0-1.92,6c-.18,1.46-1.23,1.57-2.16,1.18-1.3-.55-1.76-2-1.34-4.91a19.27,19.27,0,0,1,2.79-6.95c.8-1.21-.63-2.4.55-4.21,4.94-6.93,17-27,32.36-41.8"/><path class="cls-2" d="M65.86,150.12c.76-1.86,3.88-6.38,4.7-5.08.38.52-.09,4-.26,4.87-.27,1.37-.94,2.82-1,3.6-.23,2.66,4.12,1.44,5.64-.22,2.93-3.2,1.88-7.31,2-7.87.33-1.9,2.34-4.45,3.5-6.35,7.75-12.7,15.17-19.83,24.86-31"/><path class="cls-1" d="M68.7,145.26c-2.2,2.18-5.51,10.05-3.9,12.81.78,1.35,2.66,1.66,3.26,1,1.46-1.63.72-2.67,1.71-5.64a25.12,25.12,0,0,1,3.83-7.16c1.34-1.64-.29-4.18-3.79-1.86A5.23,5.23,0,0,0,68.7,145.26Z"/><path class="cls-5" d="M68.7,145.26c-2.2,2.18-5.51,10.05-3.9,12.81.78,1.35,2.66,1.66,3.26,1,1.46-1.63.72-2.67,1.71-5.64a25.12,25.12,0,0,1,3.83-7.16c1.34-1.64-.29-4.18-3.79-1.86A5.23,5.23,0,0,0,68.7,145.26Z"/><path class="cls-5" d="M66.35,137.36c-.17.52-5.18,5.56-7.15,9.95-1.1,2.45-1.35,6.26,1.21,6.3"/><path class="cls-1" d="M73.75,139.93a4.1,4.1,0,0,1,1.38,5.55,3.92,3.92,0,0,1-5.29,1.88,4.11,4.11,0,0,1-1.38-5.55,3.93,3.93,0,0,1,5.29-1.88"/><path class="cls-1" d="M67.56,137.34c.72.39-.21,8.33-2.93,7.16s-3.43,3.85-4.14,3.45.38-2.8.95-3.88,5.41-7.12,6.12-6.73"/><path class="cls-5" d="M72.49,148c.44-.75,1.21-.65.69.58a5.1,5.1,0,0,1-2.29,2.46"/><path class="cls-7" d="M115.52,79c.39.94,1.48,1.06,2.38,1.06"/><path class="cls-5" d="M156.73,88.25c-3,.36-3.79,4.55.12,4.37,1.53-.07,3.51-.24,3.38-.21-.48.11-6.55.43-4.74,3.11,1.14,1.69,5.89,1,5.73,1a8.88,8.88,0,0,0-2.94.81c-2.81,1.12-2.09,3.49.66,3.73.7.06,1.71.08,2.44.08"/></svg>