<svg id="Layer_1" data-name="Layer 1" xmlns="http://www.w3.org/2000/svg" viewBox="0 0 248 291"><defs><style>.cls-1,.cls-4,.cls-6{fill-rule:evenodd;}.cls-2,.cls-5{fill:none;stroke:#000;stroke-linecap:round;stroke-width:0.57px;}.cls-2{stroke-miterlimit:22.93;}.cls-3,.cls-4{fill:#ffbffb;}.cls-5{stroke-linejoin:round;}.cls-6{fill:#fff;}</style></defs><title>Chubbs_4 by growwwkit</title><path class="cls-1" d="M85.34,120.66h27.78a5.4,5.4,0,0,1,4.88,3.86l4.57,17.29a2.87,2.87,0,0,1-2.84,3.85H92a5.39,5.39,0,0,1-4.88-3.85L82.5,124.52A2.88,2.88,0,0,1,85.34,120.66Z"/><path class="cls-2" d="M85.34,120.66h27.78a5.4,5.4,0,0,1,4.88,3.86l4.57,17.29a2.87,2.87,0,0,1-2.84,3.85H92a5.39,5.39,0,0,1-4.88-3.85L82.5,124.52A2.88,2.88,0,0,1,85.34,120.66Z"/><rect class="cls-3" x="89.22" y="145.41" width="28.5" height="3.36" rx="1.68" ry="1.68"/><rect class="cls-2" x="89.22" y="145.41" width="28.5" height="3.36" rx="1.68" ry="1.68"/><rect class="cls-3" x="89.22" y="145.41" width="20.75" height="3.36" rx="1.68" ry="1.68"/><rect class="cls-2" x="89.22" y="145.41" width="20.75" height="3.36" rx="1.68" ry="1.68"/><path class="cls-4" d="M107,206.08h21a.67.67,0,0,1,.64.64l.95,14.16H96c-.63-5.93,3.71-7.73,8.84-10.27C106.79,209.14,107,206.08,107,206.08Z"/><path class="cls-5" d="M107,206.08h21a.67.67,0,0,1,.64.64l.95,14.16H96c-.63-5.93,3.71-7.73,8.84-10.27C106.79,209.14,107,206.08,107,206.08Z"/><rect class="cls-3" x="95.32" y="218.62" width="35.26" height="4.31" rx="0.64" ry="0.64"/><rect class="cls-5" x="95.32" y="218.62" width="35.26" height="4.31" rx="0.64" ry="0.64"/><path class="cls-1" d="M106.53,206.38l-.44,1.77a143.71,143.71,0,0,1,16.79-1.71Z"/><path class="cls-2" d="M106.53,206.38l-.44,1.77a143.71,143.71,0,0,1,16.79-1.71Z"/><path class="cls-4" d="M90.05,206.12h21a.66.66,0,0,1,.64.64l1,14.16H79.07c-.63-5.93,3.71-7.73,8.83-10.27C89.89,209.18,90.05,206.12,90.05,206.12Z"/><path class="cls-5" d="M90.05,206.12h21a.66.66,0,0,1,.64.64l1,14.16H79.07c-.63-5.93,3.71-7.73,8.83-10.27C89.89,209.18,90.05,206.12,90.05,206.12Z"/><rect class="cls-3" x="78.43" y="218.65" width="35.26" height="4.31" rx="0.64" ry="0.64"/><rect class="cls-5" x="78.43" y="218.65" width="35.26" height="4.31" rx="0.64" ry="0.64"/><path class="cls-1" d="M90.34,206.42l-.44,1.76a148.24,148.24,0,0,1,16.79-1.7Z"/><path class="cls-2" d="M90.34,206.42l-.44,1.76a148.24,148.24,0,0,1,16.79-1.7Z"/><path class="cls-4" d="M127.78,81.8c0,8.55,0,8.41,0,17,.15,21.11-12.37,21.53-10.92,50.63.21,4.25,3.68,3.72,4.33,9.43,4.8,1.17,17.65-3.52,22.45-2.36,4.79-1.16,16.66,8.43,21.45,7.26,1.29-5.64,2.86-9,2.82-13.44-.19-27-11.39-33.72-11.37-50l0-18.46C156.57,62.86,127.81,63.51,127.78,81.8Z"/><path class="cls-5" d="M127.78,81.8c0,8.55,0,8.41,0,17,.15,21.11-12.37,21.53-10.92,50.63.21,4.25,3.68,3.72,4.33,9.43,4.8,1.17,17.65-3.52,22.45-2.36,4.79-1.16,16.66,8.43,21.45,7.26,1.29-5.64,2.86-9,2.82-13.44-.19-27-11.39-33.72-11.37-50l0-18.46C156.57,62.86,127.81,63.51,127.78,81.8Z"/><path class="cls-4" d="M110.81,148.77c-8.34.49-22.54,4.08-21.92,23.7,0,19.15-.08,32.95,0,33.94-.79.25,39.75.2,39.75.2s-.29-22.64-.16-27.05c.11-3.71.29-6.72,5.55-6.7.93,0,12.64,0,13.62.06,8.08.3,22.2,1,21.94-15,0-2.4-.75-4.79-1.75-8.44a3.6,3.6,0,0,1,0-.73H121.36C118.06,148.77,114,148.59,110.81,148.77Z"/><path class="cls-5" d="M110.81,148.77c-8.34.49-22.54,4.08-21.92,23.7,0,19.15-.08,32.95,0,33.94-.79.25,39.75.2,39.75.2s-.29-22.64-.16-27.05c.11-3.71.29-6.72,5.55-6.7.93,0,12.64,0,13.62.06,8.08.3,22.2,1,21.94-15,0-2.4-.75-4.79-1.75-8.44a3.6,3.6,0,0,1,0-.73H121.36C118.06,148.77,114,148.59,110.81,148.77Z"/><path class="cls-6" d="M128.91,91.77a1.68,1.68,0,1,0-1.67-1.68A1.68,1.68,0,0,0,128.91,91.77Z"/><path class="cls-5" d="M128.91,91.77a1.68,1.68,0,1,0-1.67-1.68A1.68,1.68,0,0,0,128.91,91.77Z"/><path class="cls-5" d="M144,172.88c8.12-.22,11-6.61,10.8-13.49"/><path class="cls-2" d="M129.44,84.18a3.29,3.29,0,0,0-1.77-.84"/><path class="cls-4" d="M156.27,103.69h-28.5a2,2,0,0,0,0,4h28.5a2,2,0,1,0,0-4Z"/><path class="cls-2" d="M156.27,103.69h-28.5a2,2,0,0,0,0,4h28.5a2,2,0,1,0,0-4Z"/><line class="cls-2" x1="156.54" y1="80.14" x2="112.7" y2="80.14"/><path class="cls-1" d="M127.14,107.71l-.44,1.77a142.65,142.65,0,0,1,16.79-1.7Z"/><path class="cls-2" d="M127.14,107.71l-.44,1.77a142.65,142.65,0,0,1,16.79-1.7Z"/><path class="cls-1" d="M128.23,80.07l-.44,1.77a142.3,142.3,0,0,1,16.79-1.7Z"/><path class="cls-2" d="M128.23,80.07l-.44,1.77a142.3,142.3,0,0,1,16.79-1.7Z"/><path class="cls-4" d="M130.3,98.24c-2.71-1.6-.31-4.23,1.38-2.4C131.94,96.13,131,97.88,130.3,98.24Z"/><path class="cls-2" d="M130.3,98.24c-2.71-1.6-.31-4.23,1.38-2.4C131.94,96.13,131,97.88,130.3,98.24Z"/><path class="cls-1" d="M127.74,90.4a.19.19,0,0,0-.19.2.19.19,0,0,0,.19.19.2.2,0,0,0,.19-.19A.2.2,0,0,0,127.74,90.4Z"/><path class="cls-5" d="M127.74,90.4a.19.19,0,0,0-.19.2.19.19,0,0,0,.19.19.2.2,0,0,0,.19-.19A.2.2,0,0,0,127.74,90.4Z"/><path class="cls-2" d="M127.75,99.56c.89,0,2.23-1,3.11-1.83"/><path class="cls-2" d="M112.34,206.4V176.23c0-1.73.56-3.09,2.6-3.25l19.07-.12"/><rect x="122.77" y="172.92" width="42.67" height="10.56" rx="5.28" ry="5.28"/><rect class="cls-2" x="122.77" y="172.92" width="42.67" height="10.56" rx="5.28" ry="5.28"/><path class="cls-1" d="M142.71,176.42h0a2.57,2.57,0,0,1,1.45,3.32L128,221.08a2.56,2.56,0,1,1-4.77-1.87l16.13-41.33A2.57,2.57,0,0,1,142.71,176.42Z"/><path class="cls-2" d="M142.71,176.42h0a2.57,2.57,0,0,1,1.45,3.32L128,221.08a2.56,2.56,0,1,1-4.77-1.87l16.13-41.33A2.57,2.57,0,0,1,142.71,176.42Z"/><path class="cls-1" d="M146.34,176.42h0a2.57,2.57,0,0,0-1.46,3.32L161,221.08a2.56,2.56,0,0,0,4.77-1.87l-16.14-41.33A2.56,2.56,0,0,0,146.34,176.42Z"/><path class="cls-2" d="M146.34,176.42h0a2.57,2.57,0,0,0-1.46,3.32L161,221.08a2.56,2.56,0,0,0,4.77-1.87l-16.14-41.33A2.56,2.56,0,0,0,146.34,176.42Z"/><path class="cls-1" d="M144.24,173.66h0a2.58,2.58,0,0,1,2.56,2.57l-.05,44.38a2.57,2.57,0,1,1-5.13,0l0-44.38A2.58,2.58,0,0,1,144.24,173.66Z"/><path class="cls-2" d="M144.24,173.66h0a2.58,2.58,0,0,1,2.56,2.57l-.05,44.38a2.57,2.57,0,1,1-5.13,0l0-44.38A2.58,2.58,0,0,1,144.24,173.66Z"/><path class="cls-4" d="M135.45,122c5.31-8.49-5.66-13.3-9.23-7.53-3.51,4.94-5.38,9.6-10,13.88-1.22,1.13-11.53,5.21-14.54,6.16-2.72.85-4.87,4.61-5.22,8.07-.27,2.69,2.13,3.44,3.6,1.36,0,1.46,1.55,1.67,2.56,1.15a4.72,4.72,0,0,0,1.39-1.69c0,.11-.44,2,1.2,1.89s1.79-1.89,2.45-2a54.19,54.19,0,0,0,7.11-2c7.27-2.51,13-4,16.52-11.31.45-.93,3.5-7.06,4.13-8"/><path class="cls-2" d="M125,114.2c-2.5,5.39-4.16,9.63-8.75,13.9-1.22,1.14-11.53,5.22-14.54,6.16-2.72.85-4.87,4.9-5.22,8.36-.27,2.69,2.13,3.44,3.6,1.36,0,1.46,1.55,1.67,2.56,1.15a4.72,4.72,0,0,0,1.39-1.69c0,.11-.44,2,1.2,1.89s1.79-1.89,2.45-2a54.19,54.19,0,0,0,7.11-2c7.27-2.51,13-4,16.52-11.31.45-.93,3.5-7.06,4.13-8"/><path class="cls-2" d="M100,144.05c.46-.93.85-2.34,1.75-3"/><path class="cls-2" d="M104.37,141.49a7.14,7.14,0,0,0,5.4,1.36"/><path class="cls-1" d="M117,142.41c.84.11,7.69-4.61,8.71-5.58.5-.48,2.19-1.88.07-.26a32.83,32.83,0,0,1-8.93,4.28,8.16,8.16,0,0,0,0,1.49Z"/><path class="cls-2" d="M117,142.41c.84.11,7.69-4.61,8.71-5.58.5-.48,2.19-1.88.07-.26a32.83,32.83,0,0,1-8.93,4.28,8.16,8.16,0,0,0,0,1.49Z"/></svg>