<svg id="Layer_1" data-name="Layer 1" xmlns="http://www.w3.org/2000/svg" viewBox="0 0 248 291"><defs><style>.cls-1,.cls-5{fill:#ffbffb;}.cls-1,.cls-3,.cls-6{fill-rule:evenodd;}.cls-2,.cls-4,.cls-7{fill:none;stroke-linecap:round;stroke-width:0.57px;}.cls-2,.cls-4{stroke:#000;}.cls-2,.cls-7{stroke-miterlimit:22.93;}.cls-4{stroke-linejoin:round;}.cls-6{fill:#fefefe;}.cls-7{stroke:#373435;}</style></defs><title>Chubbs_5 by growwwkit</title><path class="cls-1" d="M135.6,88.23c.15.41,15.36,10.75,19,14.8,0,0,5.41-12.2,5.59-12.59,1.39-3.09-2.42-9.43,4.8-12.81,3.21-1.51,5.21,1.23,2.85,3.41a3.44,3.44,0,0,1-1.29.86l3.19-.12c3,.08,12.76,1.54,12.66,4-.07,1.76-1.08,1.61-1.3,1.74a1.29,1.29,0,0,1,.3,2c-1.05,1.29-2.62.52-2,.9,1.31.77.17,3.24-1.63,2.83-4.9-1.14-6.89.31-7.83,2.13-4.13,8-7,18-10,21-6.95,6.82-14.15-2.57-23-18.76-3.07-5.63-6.63-1.45-2.73-6.53C134.37,90.85,135.6,88.23,135.6,88.23Z"/><path class="cls-2" d="M135.6,88.23c.15.41,15.36,10.75,19,14.8,0,0,5.41-12.2,5.59-12.59,1.39-3.09-2.42-9.43,4.8-12.81,3.21-1.51,5.21,1.23,2.85,3.41a3.44,3.44,0,0,1-1.29.86l3.19-.12c3,.08,12.76,1.54,12.66,4-.07,1.76-1.08,1.61-1.3,1.74a1.29,1.29,0,0,1,.3,2c-1.05,1.29-2.62.52-2,.9,1.31.77.17,3.24-1.63,2.83-4.9-1.14-6.89.31-7.83,2.13-4.13,8-7,18-10,21-6.95,6.82-14.15-2.57-23-18.76-3.07-5.63-6.63-1.45-2.73-6.53C134.37,90.85,135.6,88.23,135.6,88.23Z"/><path class="cls-3" d="M139.87,91.14l3.37,3.16c2,9.28,3.45,11.58,5,20.67-2-1.66-1.71,2.85-3.71,1.19Z"/><path class="cls-2" d="M139.87,91.14l3.37,3.16c2,9.28,3.45,11.58,5,20.67-2-1.66-1.71,2.85-3.71,1.19Z"/><path class="cls-1" d="M110,90.09C105.48,93.34,96.15,100,93.4,103c0,0-5.41-12.2-5.59-12.59C86.42,87.35,90.23,81,83,77.63,79.8,76.12,77.8,78.86,80.16,81a3.44,3.44,0,0,0,1.29.86l-3.19-.12c-3,.08-12.76,1.54-12.66,4,.07,1.76,1.08,1.61,1.31,1.74a1.29,1.29,0,0,0-.31,2c1.05,1.29,2.62.52,2,.9-1.31.77-.17,3.24,1.63,2.83,4.9-1.14,6.89.31,7.83,2.13,4.13,8,7,18,10,21,4.22,4.14,8,1.5,13.23-3.1A57.62,57.62,0,0,0,99.47,131h51.18c-.73-23-10.92-27.77-10.92-50.27,0-8.55,0-8.41,0-17,0-18.3-28.79-19-28.76,0l0,18.46A31.22,31.22,0,0,1,110,90.09Z"/><path class="cls-2" d="M110,90.09C105.48,93.34,96.15,100,93.4,103c0,0-5.41-12.2-5.59-12.59C86.42,87.35,90.23,81,83,77.63,79.8,76.12,77.8,78.86,80.16,81a3.44,3.44,0,0,0,1.29.86l-3.19-.12c-3,.08-12.76,1.54-12.66,4,.07,1.76,1.08,1.61,1.31,1.74a1.29,1.29,0,0,0-.31,2c1.05,1.29,2.62.52,2,.9-1.31.77-.17,3.24,1.63,2.83,4.9-1.14,6.89.31,7.83,2.13,4.13,8,7,18,10,21,4.22,4.14,8,1.5,13.23-3.1A57.62,57.62,0,0,0,99.47,131h51.18c-.73-23-10.92-27.77-10.92-50.27,0-8.55,0-8.41,0-17,0-18.3-28.79-19-28.76,0l0,18.46A31.22,31.22,0,0,1,110,90.09Z"/><path class="cls-3" d="M154.59,103c-.18.41-1.73,3.8-2.18,4.81a11.6,11.6,0,0,0,.85-4.75s-.13-1.41,0-1.22a8.86,8.86,0,0,0,1.07,1.41C154.34,103.16,154.55,102.94,154.59,103Z"/><path class="cls-4" d="M154.59,103c-.18.41-1.73,3.8-2.18,4.81a11.6,11.6,0,0,0,.85-4.75s-.13-1.41,0-1.22a8.86,8.86,0,0,0,1.07,1.41C154.34,103.16,154.55,102.94,154.59,103Z"/><path class="cls-3" d="M93.41,103c.18.41,1.73,3.8,2.18,4.81a11.6,11.6,0,0,1-.85-4.75s.13-1.41,0-1.22a8.86,8.86,0,0,1-1.07,1.41S93.45,102.94,93.41,103Z"/><path class="cls-4" d="M93.41,103c.18.41,1.73,3.8,2.18,4.81a11.6,11.6,0,0,1-.85-4.75s.13-1.41,0-1.22a8.86,8.86,0,0,1-1.07,1.41S93.45,102.94,93.41,103Z"/><path class="cls-1" d="M145.48,224.37h-21a.67.67,0,0,0-.64.64l-1,14.16h33.58c.63-5.93-3.72-7.73-8.84-10.27C145.64,227.43,145.48,224.37,145.48,224.37Z"/><path class="cls-4" d="M145.48,224.37h-21a.67.67,0,0,0-.64.64l-1,14.16h33.58c.63-5.93-3.72-7.73-8.84-10.27C145.64,227.43,145.48,224.37,145.48,224.37Z"/><rect class="cls-5" x="121.84" y="236.9" width="35.26" height="4.31" rx="0.64" ry="0.64"/><rect class="cls-4" x="121.84" y="236.9" width="35.26" height="4.31" rx="0.64" ry="0.64"/><path class="cls-1" d="M124.8,224.37h-21a.67.67,0,0,0-.64.64l-1,14.16h33.58c.63-5.93-3.72-7.73-8.84-10.27C125,227.43,124.8,224.37,124.8,224.37Z"/><path class="cls-4" d="M124.8,224.37h-21a.67.67,0,0,0-.64.64l-1,14.16h33.58c.63-5.93-3.72-7.73-8.84-10.27C125,227.43,124.8,224.37,124.8,224.37Z"/><rect class="cls-5" x="101.16" y="236.9" width="35.27" height="4.31" rx="0.64" ry="0.64"/><rect class="cls-4" x="101.16" y="236.9" width="35.27" height="4.31" rx="0.64" ry="0.64"/><path class="cls-1" d="M139.71,63.75c0,8.55,0,8.41,0,17a63.73,63.73,0,0,0,.43,7.52H110.39a31.12,31.12,0,0,0,.59-6l0-18.46C110.92,44.8,139.68,45.45,139.71,63.75Z"/><path class="cls-4" d="M139.71,63.75c0,8.55,0,8.41,0,17a63.73,63.73,0,0,0,.43,7.52H110.39a31.12,31.12,0,0,0,.59-6l0-18.46C110.92,44.8,139.68,45.45,139.71,63.75Z"/><path class="cls-1" d="M111,62.23c1.43-16.87,27.11-16.32,28.63,0Z"/><path class="cls-4" d="M111,62.23c1.43-16.87,27.11-16.32,28.63,0Z"/><path class="cls-1" d="M99.56,130.72a4.32,4.32,0,0,0,0,.62c-.18,9.67,2.94,15,2.91,23.83,0,19.15-.57,68.38-.52,69.38h44.75s.4-50.11.12-68.89c-.14-10,2.76-12.86,3.84-24.21a5.93,5.93,0,0,0,0-.73Z"/><path class="cls-4" d="M99.56,130.72a4.32,4.32,0,0,0,0,.62c-.18,9.67,2.94,15,2.91,23.83,0,19.15-.57,68.38-.52,69.38h44.75s.4-50.11.12-68.89c-.14-10,2.76-12.86,3.84-24.21a5.93,5.93,0,0,0,0-.73Z"/><path class="cls-6" d="M138.43,73.71A1.67,1.67,0,1,1,140.1,72,1.67,1.67,0,0,1,138.43,73.71Z"/><path class="cls-4" d="M138.43,73.71A1.67,1.67,0,1,1,140.1,72,1.67,1.67,0,0,1,138.43,73.71Z"/><path class="cls-6" d="M124.41,70.37A1.67,1.67,0,1,1,122.74,72,1.67,1.67,0,0,1,124.41,70.37Z"/><path class="cls-4" d="M124.41,70.37A1.67,1.67,0,1,1,122.74,72,1.67,1.67,0,0,1,124.41,70.37Z"/><path class="cls-4" d="M125,155.87c0-4.09,6.72-3.71,9.17-9.52"/><path class="cls-2" d="M137.81,65.56a3.31,3.31,0,0,1,1.93.3"/><path class="cls-2" d="M125.11,65.56a3.31,3.31,0,0,0-1.93.3"/><path class="cls-1" d="M111.22,85.64h28.5a2,2,0,0,1,0,4h-28.5a2,2,0,1,1,0-4Z"/><path class="cls-2" d="M111.22,85.64h28.5a2,2,0,0,1,0,4h-28.5a2,2,0,1,1,0-4Z"/><line class="cls-2" x1="110.95" y1="62.09" x2="154.79" y2="62.09"/><path class="cls-3" d="M140.12,89.59l.43,1.77a143.36,143.36,0,0,0-16.79-1.71Z"/><path class="cls-2" d="M140.12,89.59l.43,1.77a143.36,143.36,0,0,0-16.79-1.71Z"/><path class="cls-3" d="M145.66,224.51l.43,1.77a142.27,142.27,0,0,0-16.78-1.7Z"/><path class="cls-2" d="M145.66,224.51l.43,1.77a142.27,142.27,0,0,0-16.78-1.7Z"/><path class="cls-3" d="M124.7,224.51l.43,1.77a142.27,142.27,0,0,0-16.78-1.7Z"/><path class="cls-2" d="M124.7,224.51l.43,1.77a142.27,142.27,0,0,0-16.78-1.7Z"/><path class="cls-3" d="M139.26,62l.44,1.77a143.36,143.36,0,0,0-16.79-1.71Z"/><path class="cls-2" d="M139.26,62l.44,1.77a143.36,143.36,0,0,0-16.79-1.71Z"/><path class="cls-3" d="M138.28,71.87a.19.19,0,0,1,.19.19.18.18,0,0,1-.19.19.19.19,0,0,1-.19-.19A.2.2,0,0,1,138.28,71.87Z"/><path class="cls-4" d="M138.28,71.87a.19.19,0,0,1,.19.19.18.18,0,0,1-.19.19.19.19,0,0,1-.19-.19A.2.2,0,0,1,138.28,71.87Z"/><path class="cls-3" d="M124.44,72.27a.2.2,0,0,1-.19-.19.19.19,0,0,1,.19-.19.19.19,0,0,1,.2.19A.2.2,0,0,1,124.44,72.27Z"/><path class="cls-4" d="M124.44,72.27a.2.2,0,0,1-.19-.19.19.19,0,0,1,.19-.19.19.19,0,0,1,.2.19A.2.2,0,0,1,124.44,72.27Z"/><line class="cls-2" x1="125.03" y1="224.55" x2="125.03" y2="155.74"/><path class="cls-2" d="M181.29,87.5A17.63,17.63,0,0,0,175.07,86"/><path class="cls-2" d="M66.71,87.5A17.63,17.63,0,0,1,72.93,86"/><path class="cls-2" d="M179.59,90.39c-.57-.22-1.14-.9-4.71-.9"/><path class="cls-2" d="M68.41,90.39c.57-.22,1.14-.9,4.71-.9"/><line class="cls-7" x1="130.11" y1="77.78" x2="134.36" y2="77.78"/><path class="cls-7" d="M166.76,81.8c-.09,1.38.45.94,1.5,2.48a6.7,6.7,0,0,1,1,2.45"/><path class="cls-7" d="M81.24,81.8c.09,1.38-.45.94-1.5,2.48a6.7,6.7,0,0,0-1,2.45"/><line class="cls-2" x1="100.48" y1="113.86" x2="107.94" y2="106.95"/><polygon class="cls-3" points="101.29 113.23 107.56 107.3 100.43 116.84 101.29 113.23"/><polygon class="cls-4" points="101.29 113.23 107.56 107.3 100.43 116.84 101.29 113.23"/></svg>